<?xml version="1.0" encoding="utf-8"?>
<!-- Generator: Adobe Illustrator 24.1.0, SVG Export Plug-In . SVG Version: 6.00 Build 0)  -->
<svg version="1.1" id="圖層_1" xmlns="http://www.w3.org/2000/svg" xmlns:xlink="http://www.w3.org/1999/xlink" x="0px" y="0px"
	 viewBox="0 0 32 20" style="enable-background:new 0 0 32 20;" xml:space="preserve">
<style type="text/css">
	.st0{fill:#FF7800;}
	.st1{fill:#FFFFFF;}
</style>
<path id="Rectangle_32" class="st0" d="M5,1h22c2.21,0,4,1.79,4,4v10c0,2.21-1.79,4-4,4H5c-2.21,0-4-1.79-4-4V5C1,2.79,2.79,1,5,1z"
	/>
<path id="Path_11" class="st1" d="M18.82,9.59l-4.96-4.45c-0.22-0.2-0.55-0.17-0.74,0.06C13.05,5.29,13,5.42,13,5.55v8.9
	c0,0.31,0.24,0.55,0.52,0.55c0.12,0,0.25-0.05,0.34-0.13l4.96-4.45c0.22-0.2,0.25-0.55,0.07-0.78C18.85,9.63,18.84,9.61,18.82,9.59z
	"/>
</svg>
