<?xml version="1.0" encoding="utf-8"?>
<!-- Generator: Adobe Illustrator 25.0.1, SVG Export Plug-In . SVG Version: 6.00 Build 0)  -->
<svg version="1.1" id="圖層_1" xmlns="http://www.w3.org/2000/svg" xmlns:xlink="http://www.w3.org/1999/xlink" x="0px" y="0px"
	 viewBox="0 0 40 40" style="enable-background:new 0 0 40 40;" xml:space="preserve">
<style type="text/css">
	.st0{fill:#AAAAAA;}
</style>
<path id="路径_68" class="st0" d="M20,2C10.1,2,2,10.1,2,20s8.1,18,18,18s18-8.1,18-18S29.9,2,20,2z M23.4,22.8
	c-0.2,0.6-0.6,1.1-1,1.5l0,0L19,27.6l0,0c-0.9,0.9-2.1,1.4-3.3,1.4l0,0c-0.6,0-1.2-0.1-1.8-0.4c-1.1-0.5-2.1-1.4-2.5-2.5
	c-0.2-0.6-0.4-1.2-0.4-1.8l0,0c0-0.6,0.1-1.2,0.4-1.8c0.2-0.6,0.6-1.1,1-1.5l0,0l3.3-3.3c0.1-0.1,0.2-0.2,0.4-0.3
	c0,0.1-0.1,0.3-0.1,0.4c0,0.2-0.1,0.3-0.1,0.5v0v0v0v0l0,0v0c0,0.2,0,0.5,0,0.7c0,0.3,0,0.5,0.1,0.8c0,0.2,0.1,0.4,0.1,0.6l-2.1,2.1
	l0,0c-0.2,0.2-0.4,0.5-0.5,0.8c-0.1,0.3-0.2,0.6-0.2,1l0,0c0,0.3,0.1,0.7,0.2,1c0.1,0.3,0.3,0.6,0.5,0.8l0,0
	c0.2,0.2,0.5,0.4,0.8,0.5c0.6,0.3,1.3,0.3,1.9,0l0,0c0.3-0.1,0.6-0.3,0.8-0.5l3.3-3.3c0.2-0.2,0.4-0.5,0.5-0.8l0,0
	c0.2-0.6,0.2-1.3,0-1.9c-0.1-0.3-0.3-0.6-0.5-0.8l0,0c-0.2-0.2-0.5-0.4-0.8-0.5c-0.3-0.1-0.6-0.2-1-0.2c0-0.1,0.1-0.2,0.1-0.3
	c0.1-0.2,0.2-0.4,0.4-0.5l0,0l1-1c0.3,0.1,0.6,0.2,0.9,0.4c0.9,0.5,1.5,1.3,1.9,2.2c0.1,0.1,0.1,0.2,0.1,0.4v0
	c0.1,0.2,0.1,0.5,0.2,0.7c0,0.2,0.1,0.5,0.1,0.7C23.7,21.6,23.6,22.2,23.4,22.8z M28.6,17.5c-0.2,0.6-0.6,1.1-1,1.5l0,0l-3.3,3.3
	c-0.1,0.1-0.2,0.2-0.4,0.3c0-0.1,0.1-0.3,0.1-0.4c0-0.2,0.1-0.3,0.1-0.5l0,0v0v0v0l0,0v0c0-0.2,0-0.5,0-0.7c0-0.5-0.1-1-0.2-1.4
	l2.1-2.1c0.2-0.2,0.4-0.5,0.5-0.8c0.1-0.3,0.2-0.6,0.2-1l0,0c0-0.3-0.1-0.7-0.2-1c-0.1-0.3-0.3-0.6-0.5-0.8l0,0
	c-0.2-0.2-0.5-0.4-0.8-0.5c-0.6-0.3-1.3-0.3-1.9,0l0,0c-0.3,0.1-0.6,0.3-0.8,0.5l-3.3,3.3c-0.2,0.2-0.4,0.5-0.5,0.8l0,0
	c-0.1,0.3-0.2,0.6-0.2,0.9c0,0.3,0.1,0.7,0.2,1c0.1,0.3,0.3,0.6,0.5,0.8l0,0c0.2,0.2,0.5,0.4,0.8,0.5c0.3,0.1,0.6,0.2,1,0.2
	c-0.1,0.3-0.3,0.6-0.5,0.9l0,0l-1,1c-0.3-0.1-0.6-0.2-0.9-0.4c-0.9-0.5-1.5-1.3-1.9-2.2c0-0.1-0.1-0.2-0.1-0.4v0
	c-0.1-0.5-0.2-0.9-0.2-1.4c0-1.2,0.5-2.4,1.4-3.3l0,0l3.3-3.3l0,0c0.9-0.9,2.1-1.4,3.3-1.4l0,0c0.6,0,1.2,0.1,1.8,0.4
	c1.1,0.5,2.1,1.4,2.5,2.5C29.1,15,29.1,16.3,28.6,17.5L28.6,17.5z"/>
</svg>
