<?xml version="1.0" encoding="utf-8"?>
<!-- Generator: Adobe Illustrator 24.2.1, SVG Export Plug-In . SVG Version: 6.00 Build 0)  -->
<svg version="1.1" id="圖層_1" xmlns="http://www.w3.org/2000/svg" xmlns:xlink="http://www.w3.org/1999/xlink" x="0px" y="0px"
	 viewBox="0 0 70 70" style="enable-background:new 0 0 70 70;" xml:space="preserve">
<style type="text/css">
	.st0{fill:none;stroke:#2D7E89;stroke-width:2;stroke-linejoin:round;}
	.st1{fill:#F77777;}
</style>
<g id="icon-learn" transform="translate(-167.543 -15.012)">
	<path id="路径_83" class="st0" d="M184.2,47.2c3.3-0.1,6-2.9,5.9-6.2c0,0,0-0.1,0-0.1v-2.1c0.3-3.2-2.2-6.1-5.4-6.3
		s-6.1,2.2-6.3,5.4c0,0.3,0,0.6,0,0.9v2.1c-0.2,3.3,2.4,6.2,5.7,6.3C184.2,47.2,184.2,47.2,184.2,47.2z"/>
	<path id="路径_84" class="st0" d="M194.5,55.4c-2-1-4.3-2.8-7.3-3h-7.3c-5.3,0-8.8,2.2-8.8,8.9v5.9c0,5.9,4.8,7.4,8.8,7.4h5.9"/>
	<path id="路径_85" class="st0" d="M178.4,60.8v5.9c0,0.8,0.7,1.5,1.5,1.5c0,0,0,0,0,0h8.8"/>
	<line id="直线_19" class="st0" x1="176.9" y1="74.6" x2="176.9" y2="82"/>
	<line id="直线_20" class="st0" x1="191.9" y1="77.6" x2="191.9" y2="82"/>
	<path id="路径_86" class="st0" d="M201.4,72.3h-5.5l2.9-5.9h5c0.8,0,1.5,0.7,1.5,1.5c0,0.2-0.1,0.4-0.2,0.7l-1.1,2.1
		C203.5,71.7,202.5,72.3,201.4,72.3z"/>
	<line id="直线_21" class="st0" x1="183.5" y1="59.4" x2="189.4" y2="66.8"/>
	<path id="路径_87" class="st0" d="M203.7,65.7l2.9-5.9H192l-8.8,17.8h14.7l2.9-5.9"/>
	<g id="组_45" transform="translate(197.763 21.578)">
		<path id="路径_88" class="st1" d="M7.4,21.2v-1.6c0-1.4-1.3-2.8-2.3-3.8C1.8,12.7,1.6,7.6,4.7,4.3S12.9,0.9,16.2,4
			s3.4,8.2,0.3,11.5c-0.1,0.1-0.2,0.2-0.3,0.3c-1,1-2.3,2.4-2.3,3.8v1.6H7.4z"/>
		<path id="路径_89" class="st1" d="M7.4,22.7v3.2L9,27.5h3.2l1.6-1.6v-3.2"/>
	</g>
	<path id="路径_90" class="st0" d="M183.8,28.1v-5.7c0-2.4,2-4.4,4.4-4.4h41.5c2.4,0,4.4,2,4.4,4.4c0,0,0,0,0,0v27.6
		c0,2.4-2,4.4-4.4,4.4c0,0,0,0,0,0l-6,0.1l-8,10.4c-0.5,0.6-1.5,0.7-2.1,0.1c-0.3-0.3-0.5-0.7-0.5-1.1v-9.4l-15-0.1"/>
</g>
</svg>
