<?xml version="1.0" encoding="utf-8"?>
<!-- Generator: Adobe Illustrator 24.1.0, SVG Export Plug-In . SVG Version: 6.00 Build 0)  -->
<svg version="1.1" id="圖層_1" xmlns="http://www.w3.org/2000/svg" xmlns:xlink="http://www.w3.org/1999/xlink" x="0px" y="0px"
	 viewBox="0 0 18 18" style="enable-background:new 0 0 18 18;" xml:space="preserve">
<style type="text/css">
	.st0{fill:#666666;}
</style>
<path id="Path_12" class="st0" d="M9,1C5.61,1.08,2.93,3.88,3,7.27C3,10.73,7.59,17,9,17c1.63,0,6-6.27,6-9.73
	C15.07,3.88,12.39,1.08,9,1z M9,10.5c-1.86,0.08-3.44-1.36-3.52-3.22s1.36-3.44,3.22-3.52s3.44,1.36,3.52,3.22c0,0.05,0,0.1,0,0.15
	C12.27,8.95,10.83,10.46,9,10.5C9,10.5,9,10.5,9,10.5L9,10.5z"/>
</svg>
