<?xml version="1.0" encoding="utf-8"?>
<!-- Generator: Adobe Illustrator 24.1.0, SVG Export Plug-In . SVG Version: 6.00 Build 0)  -->
<svg version="1.1" id="圖層_1" xmlns="http://www.w3.org/2000/svg" xmlns:xlink="http://www.w3.org/1999/xlink" x="0px" y="0px"
	 viewBox="0 0 70 70" style="enable-background:new 0 0 70 70;" xml:space="preserve">
<style type="text/css">
	.st0{fill:#F77777;}
	.st1{fill:none;stroke:#514F50;stroke-width:1.6379;stroke-linejoin:round;}
	.st2{fill:none;stroke:#F77777;stroke-width:1.9999;stroke-linejoin:round;}
	.st3{fill:none;stroke:#F77777;stroke-width:1.9999;stroke-miterlimit:10;}
	.st4{fill:none;stroke:#2D7E89;stroke-width:1.9999;stroke-miterlimit:10;}
	.st5{fill:none;stroke:#2D7E89;stroke-width:1.9999;stroke-linejoin:round;}
</style>
<g id="icon-trip" transform="translate(0)">
	<path id="Path_31" class="st0" d="M54.91,32.29c3.3-0.1,5.9-2.86,5.81-6.16c0-0.04,0-0.09-0.01-0.13v-2.1
		c0.26-3.2-2.13-6.01-5.33-6.27c-3.2-0.26-6.01,2.13-6.27,5.33c-0.03,0.31-0.03,0.63,0,0.94V26c-0.17,3.3,2.37,6.12,5.67,6.29
		C54.83,32.29,54.87,32.29,54.91,32.29z"/>
	<path id="Path_32" class="st1" d="M67.96,50.38v-5.07c0.16-1.76-0.2-3.54-1.04-5.09c-0.31-0.57-0.69-1.09-1.13-1.57
		c-2.21-2.3-5.61-2.21-6.53-2.15h-8.7"/>
	<path id="Path_33" class="st2" d="M67.96,57.5V45.19c0.16-1.76-0.2-3.54-1.04-5.09c-0.31-0.57-0.69-1.09-1.13-1.57
		c-2.21-2.3-5.61-2.21-6.53-2.15h-8.7"/>
	<line id="Line_8" class="st3" x1="62.16" y1="45.19" x2="62.16" y2="57.31"/>
	<path id="Path_34" class="st4" d="M39.16,38.3c3.3-0.1,5.9-2.86,5.8-6.16c0-0.04,0-0.09-0.01-0.13v-2.1
		c0.27-3.2-2.11-6.02-5.32-6.28c-3.2-0.27-6.02,2.11-6.28,5.32c-0.03,0.32-0.03,0.64,0,0.96v2.1c-0.17,3.3,2.37,6.12,5.67,6.29
		C39.07,38.3,39.11,38.3,39.16,38.3z"/>
	<path id="Path_35" class="st5" d="M31.96,63V51.25c0,0-13.11-5.57-16.9-13.21l2.98-5.72c0,0,8.73,10.13,13.92,10.13h11.6
		c5.2,0,8.7,2.22,8.7,8.81V63"/>
	<line id="Line_9" class="st4" x1="46.37" y1="51.26" x2="46.37" y2="63"/>
	<path id="Path_36" class="st0" d="M2,12.69l13.51-5.33v10.65L2,12.69z"/>
	<line id="Line_10" class="st5" x1="17.84" y1="7" x2="17.84" y2="32.99"/>
</g>
</svg>
