<?xml version="1.0" encoding="utf-8"?>
<!-- Generator: Adobe Illustrator 24.1.0, SVG Export Plug-In . SVG Version: 6.00 Build 0)  -->
<svg version="1.1" id="圖層_1" xmlns="http://www.w3.org/2000/svg" xmlns:xlink="http://www.w3.org/1999/xlink" x="0px" y="0px"
	 viewBox="0 0 70 70" style="enable-background:new 0 0 70 70;" xml:space="preserve">
<style type="text/css">
	.st0{fill:#F77777;}
	.st1{fill:none;stroke:#2D7E89;stroke-width:2;stroke-linejoin:round;}
	.st2{fill:none;stroke:#F77777;stroke-width:2;stroke-linejoin:round;}
</style>
<g id="icon-vip" transform="translate(1 1)">
	<g id="Group_4" transform="translate(24.903 4.768)">
		<path id="Path_42" class="st0" d="M10.23,11.09c2.06-0.04,3.7-1.75,3.66-3.81c0-0.03,0-0.06,0-0.09v-1.3
			c0.13-2.02-1.41-3.76-3.43-3.88S6.7,3.42,6.57,5.44c-0.01,0.15-0.01,0.3,0,0.45v1.3c-0.09,2.06,1.51,3.81,3.57,3.9
			C10.17,11.09,10.2,11.09,10.23,11.09z"/>
		<path id="Path_43" class="st0" d="M2,21.66v-3.64c0-4.08,2.21-5.46,5.49-5.46h5.49c3.28,0,5.49,1.37,5.49,5.46v3.64"/>
	</g>
	<path id="Path_44" class="st1" d="M49.27,30.26V2H13.63L2.37,12.65L2,66h49.76v-5.87"/>
	<ellipse id="Ellipse_4" class="st2" cx="43.94" cy="46.22" rx="11.27" ry="11.61"/>
	<line id="Line_13" class="st1" x1="26.19" y1="38.25" x2="7.71" y2="38.25"/>
	<line id="Line_14" class="st1" x1="26.19" y1="46.9" x2="7.71" y2="46.9"/>
	<line id="Line_15" class="st1" x1="26.19" y1="55.69" x2="7.71" y2="55.69"/>
	<line id="Line_16" class="st2" x1="56.22" y1="55.05" x2="66" y2="62.86"/>
	<path id="Path_45" class="st1" d="M7.71,15.48h9.49V7.15"/>
</g>
</svg>
