<?xml version="1.0" encoding="utf-8"?>
<!-- Generator: Adobe Illustrator 24.1.0, SVG Export Plug-In . SVG Version: 6.00 Build 0)  -->
<svg version="1.1" id="圖層_1" xmlns="http://www.w3.org/2000/svg" xmlns:xlink="http://www.w3.org/1999/xlink" x="0px" y="0px"
	 viewBox="0 0 70 70" style="enable-background:new 0 0 70 70;" xml:space="preserve">
<style type="text/css">
	.st0{fill:#F77777;}
	.st1{fill:none;stroke:#2D7E89;stroke-width:2;stroke-linejoin:round;}
</style>
<g id="icon-carrer" transform="translate(1)">
	<g id="Group_2" transform="translate(17.378 0)">
		<path id="Path_37" class="st0" d="M16.62,14.4c2.62-0.01,4.74-2.15,4.72-4.77c0-0.04,0-0.08,0-0.12V7.89
			c0.09-2.61-1.95-4.8-4.55-4.89c-2.61-0.09-4.8,1.95-4.89,4.55c0,0.11,0,0.22,0,0.34v1.63c-0.08,2.62,1.98,4.8,4.6,4.88
			C16.54,14.4,16.58,14.4,16.62,14.4z"/>
		<path id="Path_38" class="st0" d="M6,27.64v-4.56c0-5.11,2.85-6.84,7.08-6.84h7.08c4.23,0,7.08,1.72,7.08,6.84v4.56"/>
	</g>
	<path id="Path_39" class="st1" d="M44.54,54.33H62L51.47,28.46H14.96L6,54.33h16.96"/>
	<g id="Group_3" transform="translate(17.378 31.611)">
		<path id="Path_40" class="st1" d="M16.62,14.4c2.62-0.01,4.74-2.15,4.72-4.77c0-0.04,0-0.08,0-0.12V7.89
			c0.09-2.61-1.95-4.8-4.55-4.89c-2.61-0.09-4.8,1.95-4.89,4.55c0,0.11,0,0.22,0,0.34v1.63c-0.08,2.62,1.98,4.8,4.6,4.88
			C16.54,14.4,16.58,14.4,16.62,14.4z"/>
		<line id="Line_11" class="st1" x1="11.37" y1="26.28" x2="11.37" y2="35.39"/>
		<path id="Path_41" class="st1" d="M6,35.4v-9.12c0-5.11,2.85-6.84,7.08-6.84h7.08c4.23,0,7.08,1.72,7.08,6.84v9.12"/>
		<line id="Line_12" class="st1" x1="21.94" y1="26.28" x2="21.94" y2="35.39"/>
	</g>
</g>
</svg>
