<?xml version="1.0" encoding="utf-8"?>
<!-- Generator: Adobe Illustrator 24.2.1, SVG Export Plug-In . SVG Version: 6.00 Build 0)  -->
<svg version="1.1" id="圖層_1" xmlns="http://www.w3.org/2000/svg" xmlns:xlink="http://www.w3.org/1999/xlink" x="0px" y="0px"
	 viewBox="0 0 118 21" style="enable-background:new 0 0 118 21;" xml:space="preserve">
<style type="text/css">
	.st0{fill:#686868;}
	.st1{fill:#FF7800;}
</style>
<g>
	<path class="st0" d="M22.1,10.5L22.1,10.5l3.5,0v0c0-5.5-4.5-10-10-10c-3.6,0-6.8,1.9-8.5,4.8V0.5H3.5L0,4h3.5v16.5h3.5v-4.8
		c-0.9-1.5-1.5-3.3-1.5-5.2c0-2.1,0.8-4,2.1-5.4c0,0,0.1-0.1,0.1-0.1c0.2-0.2,0.4-0.4,0.6-0.6c0,0,0.1-0.1,0.1-0.1
		c0.2-0.2,0.4-0.4,0.7-0.5c0,0,0,0,0.1,0C9.4,3.5,9.7,3.3,10,3.2c0,0,0,0,0,0c0.3-0.1,0.5-0.3,0.8-0.4c0.1,0,0.2-0.1,0.2-0.1
		c0.2-0.1,0.4-0.1,0.6-0.2c0.1,0,0.2-0.1,0.3-0.1c0.2-0.1,0.4-0.1,0.7-0.1c0.1,0,0.2,0,0.3,0c0.3,0,0.6-0.1,1-0.1
		c0.5,0,0.9,0,1.4,0.1c0.1,0,0.1,0,0.2,0c0.1,0,0.2,0,0.2,0.1c0.7,0.2,1.3,0.4,1.9,0.7c0,0,0,0,0,0c0.2,0.1,0.4,0.2,0.7,0.4
		c0,0,0,0,0.1,0c0.2,0.1,0.4,0.3,0.6,0.4c0,0,0,0,0,0c0.2,0.1,0.4,0.3,0.5,0.4c0,0,0,0,0,0C19.7,4.6,19.8,4.8,20,5C20,5,20,5,20,5
		c0.1,0.2,0.3,0.3,0.4,0.5c0.1,0.1,0.1,0.2,0.2,0.2c0.1,0.1,0.2,0.3,0.3,0.4C21,6.3,21,6.4,21.1,6.6c0,0.1,0.1,0.2,0.1,0.2
		c0.1,0.2,0.1,0.3,0.2,0.5c0,0.1,0.1,0.1,0.1,0.2c0.1,0.2,0.2,0.5,0.2,0.7c0,0,0,0,0,0c0.1,0.5,0.2,1,0.3,1.5
		C22.1,10,22.1,10.2,22.1,10.5"/>
	<path class="st0" d="M38.6,13.4v-13H38L22.1,16.4h13v4.1h3.5v-4.1h4.1v-2.9H38.6z M35,13.4h-5.9L35,7.5V13.4z"/>
	<path class="st1" d="M22.1,16.4l3.2-3.2c0.2-0.9,0.4-1.8,0.4-2.7h-3.5c0,3.6-2.9,6.5-6.5,6.5c-3.6,0-6.5-2.9-6.5-6.5
		C9.1,6.9,12,4,15.6,4c3.4,0,6.1,2.6,6.5,5.8c-0.3-4.2-3.9-7.6-8.2-7.6c-4.6,0-8.3,3.7-8.3,8.3c0,5.5,4.5,10,10,10
		c3.3,0,6.3-1.6,8.1-4.1H22.1z"/>
	<g>
		<path class="st0" d="M57,0.4h1.8V2h8.7v1.7H48.1V2H57V0.4z M63.1,18.5c0.8,0.2,1.3,0.2,1.6,0.1c0.3-0.2,0.5-0.5,0.5-0.8v-5.4
			c0-0.1,0-0.1-0.1-0.1H50.7c-0.1,0-0.1,0-0.1,0.1v8h-1.8V11c0-0.3,0.1-0.4,0.4-0.4h17.3c0.3,0,0.4,0.1,0.4,0.4v7.5
			c0,0.7-0.3,1.3-0.9,1.7c-0.7,0.5-2,0.5-3.8,0.1l0-1.7h-9.5c-0.2,0-0.2-0.1-0.2-0.3v-4.6c0-0.2,0.1-0.2,0.2-0.2h10.2
			c0.2,0,0.3,0.1,0.3,0.2v4.6C63.1,18.4,63.1,18.5,63.1,18.5z M64.4,9.7H51.2c-0.2,0-0.2-0.1-0.2-0.3V5.1c0-0.2,0.1-0.2,0.2-0.2
			h13.2c0.2,0,0.3,0.1,0.3,0.2v4.3C64.7,9.6,64.6,9.7,64.4,9.7z M52.9,6.5C52.8,6.5,52.8,6.5,52.9,6.5L52.8,8c0,0.1,0,0.1,0.1,0.1
			h9.9c0.1,0,0.1,0,0.1-0.1V6.5c0-0.1,0-0.1-0.1-0.1H52.9z M54.2,15C54.2,15,54.2,15,54.2,15l-0.1,1.9c0,0,0,0.1,0.1,0.1h7.2
			c0.1,0,0.1,0,0.1-0.1v-1.8c0,0,0-0.1-0.1-0.1H54.2z"/>
		<path class="st0" d="M73.2,16.2v-1.8h2.9V7.8c0-0.3,0.1-0.4,0.4-0.4h7V4h-6.3c-0.8,1.4-1.8,2.7-3,3.7l-1.3-1.3
			c0.9-0.8,1.7-1.6,2.3-2.5c0.5-0.8,1-1.9,1.5-3.4l1.7,0.5c-0.1,0.4-0.3,0.8-0.4,1.2h14.3V4h-6.9v3.4h6.4v1.8h-6.4v5.2h7.3v1.8h-7.3
			v4.1h-1.9v-4.1H73.2z M83.6,9.2h-5.3c-0.2,0-0.2,0.1-0.2,0.2v5h5.6V9.2z"/>
		<path class="st0" d="M98.5,11.5c-0.1-0.5-0.2-1.1-0.4-1.7l1.5-0.2c0.5-0.6,1.1-1.2,1.7-2c-1.1-1-2.2-1.8-3.3-2.3l0.8-1.6
			c0.1,0,0.4,0.2,0.9,0.5c0.7-1.1,1.3-2.4,2-3.7l1.5,0.9c-0.4,1-1.2,2.2-2.2,3.8c0.4,0.3,0.8,0.6,1.2,1c0.6-1.1,1.1-2.1,1.5-3.2
			l1.7,0.5c-0.4,1.5-1.6,3.4-3.5,5.7l2.6-0.4c-0.3-0.7-0.4-1.1-0.5-1.3l1.6-0.5c0.6,1.6,1.1,3,1.5,4.2l-1.6,0.4
			c-0.1-0.3-0.2-0.7-0.3-1l-2,0.3v9.5h-1.7v-9.3L98.5,11.5z M100.6,12.8c-0.2,2.7-0.5,4.8-0.8,6.3l-1.6-0.3c0.4-1.9,0.7-3.9,0.8-6.3
			L100.6,12.8z M108.9,13.1c-0.7,3.1-1.6,5.5-2.6,7l-1.8-0.5c0.4-0.9,0.9-1.8,1.3-2.7l-1.5,0.1l-0.4-4.5l1.6-0.3l0.4,4.3
			c1.4-3.8,2.1-7.5,2.1-11.1V3h-2V1.2h9.6c0.2,0,0.4,0.1,0.6,0.3c0.2,0.2,0.3,0.4,0.2,0.7l-1,4.6h1.3l1.2,0.8
			c-0.4,3.5-1.6,6.4-3.5,8.7c0.9,1,2.1,2,3.6,3.1l-1.5,1.2c-1.4-1.1-2.5-2.1-3.3-3c-1.2,1.1-2.6,2.2-4.5,3.1l-1.4-1.4
			c1.7-0.8,3-1.7,3.9-2.5c0.3-0.2,0.5-0.5,0.8-0.7c-1.2-1.9-2.1-4.3-2.5-7.2C109.3,10.8,109.1,12.3,108.9,13.1z M113.6,6.7l0.8-3.7
			h-4.6v2.4c0,0.4,0,0.8-0.1,1.3H113.6z M113.2,14.6c1.3-1.8,2.2-3.9,2.6-6.1h-4.5c0.2,1.3,0.4,2.5,0.8,3.5
			C112.4,13,112.8,13.8,113.2,14.6z"/>
	</g>
</g>
</svg>
