<?xml version="1.0" encoding="utf-8"?>
<!-- Generator: Adobe Illustrator 24.2.1, SVG Export Plug-In . SVG Version: 6.00 Build 0)  -->
<svg version="1.1" id="圖層_1" xmlns="http://www.w3.org/2000/svg" xmlns:xlink="http://www.w3.org/1999/xlink" x="0px" y="0px"
	 viewBox="0 0 70 70" style="enable-background:new 0 0 70 70;" xml:space="preserve">
<style type="text/css">
	.st0{fill:none;stroke:#2D7E89;stroke-width:2;stroke-linejoin:round;}
	.st1{fill:#F77777;}
</style>
<g id="icon-life" transform="translate(-172.401 -79.438)">
	<path id="路径_99" class="st0" d="M212.7,110c2.7,0,4.8-2.2,4.8-4.8c0,0,0-0.1,0-0.1v-1.7c0.1-2.7-2-4.9-4.7-5s-4.9,2-5,4.7
		c0,0.1,0,0.2,0,0.3v1.7c-0.1,2.7,2,4.9,4.7,4.9C212.7,110,212.7,110,212.7,110z"/>
	<path id="路径_100" class="st0" d="M222.2,136.5l-1.3-12l14.1,11l4.4-4l-14-12.3c-2.5-2.4-4.7-4.6-9-4.6H209
		c-4.3,0-5.1,0.6-8.6,3.4l-14.4,12.6l4.7,4.3l14-10.5l-1.5,12.1"/>
	<g id="组_47" transform="translate(193.343 131.532)">
		<path id="路径_101" class="st0" d="M27.6,7L6.7,4.7c0,0-4.7-0.2-4.7,4c0,3.7,4.7,3.7,4.7,3.7h20.9V7z"/>
		<path id="路径_102" class="st0" d="M20.7,6.2l11-1.7c0,0,5.5-0.7,5.5,3.7c0,4.3-5.5,4.2-5.5,4.2H22"/>
	</g>
	<path id="路径_103" class="st1" d="M214.6,119.3L214.6,119.3c-0.1,0-0.1-0.1-0.2-0.1c0,0-0.1,0-0.1,0c0,0,0,0-0.1,0
		c-0.4,0.1-0.7,0.3-0.9,0.6l0,0c-0.1,0.1-0.1,0.2-0.2,0.2l0,0.1c0,0.1-0.1,0.1-0.1,0.2l-0.1,0.1l-0.1,0.1l0,0.1l0-0.1l-0.1-0.1
		l-0.1-0.1c0-0.1-0.1-0.1-0.1-0.2l0-0.1c-0.1-0.1-0.1-0.2-0.2-0.2l0,0c-0.2-0.3-0.5-0.5-0.9-0.6c0,0,0,0-0.1,0c0,0-0.1,0-0.1,0
		c-0.1,0-0.1,0-0.2,0.1l0,0c-0.6,0.5-0.9,1.3-0.8,2.1c0,0.2,0,0.5,0.1,0.7c0,0.2,0.1,0.4,0.2,0.5c0.1,0.2,0.2,0.4,0.4,0.6
		c0.1,0.1,0.2,0.2,0.4,0.3c0.1,0,0.1,0.1,0.2,0.1c0.3,0.2,0.6,0.3,0.9,0.5c0.2,0.1,0.3,0.2,0.5,0.3c0.3-0.2,0.7-0.4,1-0.6
		c0.5-0.2,1-0.6,1.3-1.1c0.2-0.4,0.4-0.9,0.3-1.5C215.5,120.6,215.2,119.8,214.6,119.3z"/>
	<path id="路径_104" class="st0" d="M219.5,95.3V84.9h-44.1v33.1h18"/>
	<path id="路径_105" class="st1" d="M178.9,112.7l8.8-15.2c1-1.4,3-1.6,4.4-0.6c0.1,0.1,0.3,0.2,0.4,0.4l10.1,15.5"/>
	<path id="路径_106" class="st1" d="M196.2,98.5l6.8-7.3c1-1,2.6-1,3.6,0l3.9,3.7c0,0-4.5,0.3-6.4,6.7c-1,3-0.4,6.2,1.6,8.6
		l-0.9,1.1L196.2,98.5z"/>
</g>
</svg>
